:SAMPLES-PER-SECOND 30
:FULLY-SPECIFIED
:DEGREES
251
root  19.4937 32.1673 0.900926 39.5164 -86.3979 -37.2704
RightUpLeg  8.97638 -4.87868 -2.04672
RightLeg  13.4959 1.70593 0.295917
RightFoot  -9.78006 -0.0533131 -0.245607
RightToes  -38.4099 -0.205907 -0.305965
Spine  6.62413 0.979863 0.396233
Spine1  12.9485 2.4572 0.0192069
HEad  12.8692 5.05761 7.22911
LeftShoulder1  0 -2.42657e-020 -4.95415e-022
LeftArm  -77.0304 28.4632 -85.6888
LeftForeArm  74.4829 -16.0885 -2.82876
LeftHand  0.254188 -8.22962 -3.90541
RightShoulder  0 2.42657e-020 1.07489e-018
RightArm  -10.8302 -6.82517 85.805
RightForeArm  39.1886 51.4999 12.835
RightHand  -0.434876 23.3816 -1.73185
LeftUpLeg  -27.0267 9.68567 10.6425
LeftLeg  12.0629 -1.00794 -0.14989
LeftFoot  7.04125 0.00688058 -0.111845
LeftToes  -17.314 1.33192e-006 1.13262e-007
252
root  20.4629 32.3436 0.17906 43.1722 -85.3929 -41.3318
RightUpLeg  8.10791 -6.31623 -0.206838
RightLeg  12.8315 2.32565 0.375476
RightFoot  -9.01876 -0.0554226 -0.325208
RightToes  -37.2494 -0.196892 -0.299063
Spine  6.82191 0.659312 1.06448
Spine1  13.424 1.67393 1.41236
HEad  14.9203 5.07023 6.57695
LeftShoulder1  0 -2.42657e-020 -4.95415e-022
LeftArm  -73.9559 26.9886 -88.0077
LeftForeArm  73.03 -15.0735 -2.64056
LeftHand  0.44254 -9.8456 -5.50836
RightShoulder  0 2.42657e-020 1.07489e-018
RightArm  -12.1114 -8.50801 84.8019
RightForeArm  37.0214 48.0687 11.339
RightHand  -0.371476 22.528 -1.4954
LeftUpLeg  -26.3942 9.9977 11.2768
LeftLeg  9.70962 -0.511526 -0.0551354
LeftFoot  6.77994 0.00348479 -0.0588387
LeftToes  -19.7849 1.33192e-006 1.13262e-007
253
root  21.3759 32.6386 -0.36968 36.8491 -84.9787 -34.9543
RightUpLeg  6.33196 -6.59807 0.791902
RightLeg  13.0863 1.83181 0.304295
RightFoot  -7.75921 -0.0400701 -0.213334
RightToes  -35.383 -0.182691 -0.287584
Spine  6.78702 0.282351 1.35297
Spine1  13.4032 0.82224 2.06057
HEad  17.2605 4.89362 6.69978
LeftShoulder1  0 -2.42657e-020 -4.95415e-022
LeftArm  -67.9295 25.6156 -89.7779
LeftForeArm  69.7909 -14.244 -2.49355
LeftHand  0.705802 -11.1329 -7.60713
RightShoulder  0 2.42657e-020 1.07489e-018
RightArm  -14.2291 -10.0417 83.8699
RightForeArm  34.6085 43.0304 9.48171
RightHand  -0.33907 21.603 -1.40748
LeftUpLeg  -26.6174 10.7608 10.0214
LeftLeg  10.4834 0.524166 0.0613056
LeftFoot  8.22768 -0.00478044 0.0799
LeftToes  -21.3968 1.33192e-006 1.13262e-007
254
root  22.2555 32.9597 -0.804438 24.7675 -85.1536 -22.7577
RightUpLeg  4.48175 -5.78922 1.01441
RightLeg  13.4571 0.383569 0.0669769
RightFoot  -6.69769 -0.0231771 -0.0185408
RightToes  -32.5228 -0.161673 -0.269112
Spine  6.65042 0.0689197 1.20273
Spine1  13.1475 0.347943 1.87632
HEad  19.2309 4.15439 7.70578
LeftShoulder1  0 -2.42657e-020 -4.95415e-022
LeftArm  -61.5157 24.6828 -90.7949
LeftForeArm  67.1347 -16.3247 -2.89358
LeftHand  0.894658 -12.1591 -8.75996
RightShoulder  0 2.42657e-020 1.07489e-018
RightArm  -18.6523 -11.2618 83.6658
RightForeArm  34.0842 36.457 7.48274
RightHand  -0.2275 21.1649 -0.847896
LeftUpLeg  -26.7668 11.0111 7.92018
LeftLeg  13.524 1.51628 0.261455
LeftFoot  8.80729 -0.0138662 0.241329
LeftToes  -20.4854 1.33192e-006 1.13262e-007
255
root  23.0275 33.2238 -1.15552 13.0314 -85.009 -11.0798
RightUpLeg  3.31394 -5.92039 0.806879
RightLeg  13.2874 -0.0205045 -0.00252095
RightFoot  -5.44268 -0.0170571 0.0186975
RightToes  -31.0051 -0.150903 -0.258891
Spine  6.63861 -0.123994 1.05833
Spine1  13.1242 -0.0459395 1.64152
HEad  20.0702 3.51963 8.10951
LeftShoulder1  0 -2.42657e-020 -4.95415e-022
LeftArm  -54.6721 23.8083 -91.0921
LeftForeArm  63.7655 -19.5413 -3.52776
LeftHand  1.00651 -12.532 -9.52265
RightShoulder  0 2.42657e-020 1.07489e-018
RightArm  -24.965 -12.3361 83.4346
RightForeArm  35.6642 30.5071 5.95439
RightHand  -0.225434 20.9354 -0.850371
LeftUpLeg  -26.5959 10.9862 6.04338
LeftLeg  17.9844 0.760134 0.191674
LeftFoot  8.33129 -0.00487215 0.116907
LeftToes  -20.39 1.33192e-006 1.13262e-007
256
root  23.7392 33.3969 -1.47305 5.474 -85.4482 -3.60422
RightUpLeg  2.09106 -6.06795 0.605765
RightLeg  13.3281 0.381077 0.0656902
RightFoot  -4.46796 -0.0118944 -0.0250286
RightToes  -30.2192 -0.145434 -0.253487
Spine  6.63309 -0.167705 0.97115
Spine1  13.0956 -0.142671 1.50812
HEad  20.3654 3.51336 7.57687
LeftShoulder1  0 -2.42657e-020 -4.95415e-022
LeftArm  -48.9035 22.912 -90.9135
LeftForeArm  60.3848 -22.6333 -4.1624
LeftHand  0.955449 -12.3867 -9.16252
RightShoulder  0 2.42657e-020 1.07489e-018
RightArm  -31.9522 -13.2968 82.7713
RightForeArm  39.101 26.2071 4.96462
RightHand  -0.372014 20.4857 -1.68903
LeftUpLeg  -25.886 11.1143 4.84936
LeftLeg  22.9627 -0.259169 -0.0934079
LeftFoot  7.53915 0.00512163 -0.0427427
LeftToes  -19.949 1.33192e-006 1.13262e-007
257
root  24.3819 33.5066 -1.77201 0.577377 -85.9958 1.16725
RightUpLeg  1.1407 -6.10091 0.68675
RightLeg  13.0631 0.737666 0.122826
RightFoot  -3.46636 -0.0100574 -0.0585507
RightToes  -30.0283 -0.144116 -0.252163
Spine  6.59037 -0.334042 1.02026
Spine1  12.9872 -0.528406 1.66372
HEad  20.5343 4.09511 6.60352
LeftShoulder1  0 -2.42657e-020 -4.95415e-022
LeftArm  -47.6182 21.6154 -91.0634
LeftForeArm  60.1726 -24.415 -4.53727
LeftHand  0.814603 -13.1999 -7.4055
RightShoulder  0 2.42657e-020 1.07489e-018
RightArm  -34.7995 -14.0126 80.4695
RightForeArm  39.6737 22.1302 4.09668
RightHand  -0.766247 19.1327 -4.17561
LeftUpLeg  -24.5862 10.4723 4.27747
LeftLeg  27.9395 0.394664 0.174425
LeftFoot  3.62359 0.000123618 -0.00391706
LeftToes  -15.2559 1.33192e-006 1.13262e-007
258
root  25.0006 33.549 -2.07189 -2.01976 -86.9087 3.57593
RightUpLeg  -0.339535 -5.46724 1.07714
RightLeg  14.0922 1.09724 0.202307
RightFoot  -3.26621 -0.00897843 -0.100385
RightToes  -28.8681 -0.136205 -0.244023
Spine  6.46789 -0.492256 1.10294
Spine1  12.7163 -0.925129 1.89902
HEad  20.91 5.06132 5.51936
LeftShoulder1  0 -2.42657e-020 -4.95415e-022
LeftArm  -41.7753 20.9527 -90.0232
LeftForeArm  54.7308 -26.8197 -5.07252
LeftHand  0.589824 -11.4372 -6.25852
RightShoulder  0 2.42657e-020 1.07489e-018
RightArm  -46.1968 -13.5473 79.1285
RightForeArm  48.0549 17.1596 3.09512
RightHand  -0.862206 19.6932 -4.59599
LeftUpLeg  -22.6685 10.3744 3.95291
LeftLeg  32.3866 3.07889 1.68062
LeftFoot  -0.830115 -0.000811299 -0.112001
LeftToes  -12.781 1.33192e-006 1.13262e-007
259
root  25.5772 33.5852 -2.37719 0.889954 -87.4448 0.678299
RightUpLeg  -1.78823 -5.07748 1.78494
RightLeg  14.8077 1.20671 0.237852
RightFoot  -2.77018 -0.00919826 -0.12078
RightToes  -28.5838 -0.134292 -0.242004
Spine  6.23222 -0.869018 1.30882
Spine1  12.2309 -1.7872 2.35586
HEad  21.578 6.43134 4.44921
LeftShoulder1  0 -2.42657e-020 -4.95415e-022
LeftArm  -40.0692 19.7104 -89.4031
LeftForeArm  53.0436 -27.5871 -5.24775
LeftHand  0.499928 -11.0621 -5.53254
RightShoulder  0 2.42657e-020 1.07489e-018
RightArm  -53.4221 -13.493 76.4529
RightForeArm  52.8204 13.412 2.3775
RightHand  -1.05032 18.5505 -6.05684
LeftUpLeg  -20.2098 9.99776 3.91054
LeftLeg  35.5974 6.5759 4.0752
LeftFoot  -3.58711 -0.0179121 -0.572027
LeftToes  -10.308 1.33192e-006 1.13262e-007
